name C:/MyDriveSym/Projects/mobilecap/Data\Session20210830_0002\mocap\ForceDataProcessed\walkingTS3_forces.mot
datacolumns 19
datarows 29
range 0.00000000 0.01400000
endheader 
time	R_ground_force_vx	R_ground_force_vy	R_ground_force_vz	R_ground_force_px	R_ground_force_py	R_ground_force_pz	R_ground_torque_x	R_ground_torque_y	R_ground_torque_z	L_ground_force_vx	L_ground_force_vy	L_ground_force_vz	L_ground_force_px	L_ground_force_py	L_ground_force_pz	L_ground_torque_x	L_ground_torque_y	L_ground_torque_z	
          0.00000000	        -10.79859300	        221.72522700	         23.37720600	          0.11982200	          0.00600000	         -0.14711100	          0.00000000	          0.53762000	          0.00000000	          0.00000000	          0.00000000	          0.00000000	          0.68966600	          0.00000000	         -0.26819600	          0.00000000	          0.00000000	          0.00000000	
          0.00050000	        -11.18461700	        223.28359400	         23.39626500	          0.11982200	          0.00600000	         -0.14711100	          0.00000000	          0.52922200	          0.00000000	          0.00000000	          0.00000000	          0.00000000	          0.68966600	          0.00000000	         -0.26819600	          0.00000000	          0.00000000	          0.00000000	
          0.00100000	        -11.57310800	        224.85363600	         23.41400500	          0.11982200	          0.00600000	         -0.14711100	          0.00000000	          0.52071900	          0.00000000	          0.00000000	          0.00000000	          0.00000000	          0.68966600	          0.00000000	         -0.26819600	          0.00000000	          0.00000000	          0.00000000	
          0.00150000	        -11.96404800	        226.43531200	         23.43039900	          0.11982200	          0.00600000	         -0.14711100	          0.00000000	          0.51211200	          0.00000000	          0.00000000	          0.00000000	          0.00000000	          0.68966600	          0.00000000	         -0.26819600	          0.00000000	          0.00000000	          0.00000000	
          0.00200000	        -12.35741900	        228.02858100	         23.44542200	          0.12014400	          0.00600000	         -0.14707800	          0.00000000	          0.50339900	          0.00000000	          0.00000000	          0.00000000	          0.00000000	          0.68966600	          0.00000000	         -0.26819600	          0.00000000	          0.00000000	          0.00000000	
          0.00250000	        -12.75320300	        229.63339900	         23.45904700	          0.12046500	          0.00600000	         -0.14704500	          0.00000000	          0.49458100	          0.00000000	          0.00000000	          0.00000000	          0.00000000	          0.68966600	          0.00000000	         -0.26819600	          0.00000000	          0.00000000	          0.00000000	
          0.00300000	        -13.15138100	        231.24972100	         23.47124600	          0.12078700	          0.00600000	         -0.14701200	          0.00000000	          0.48565800	          0.00000000	          0.00000000	          0.00000000	          0.00000000	          0.68966600	          0.00000000	         -0.26819600	          0.00000000	          0.00000000	          0.00000000	
          0.00350000	        -13.55193300	        232.87749900	         23.48199300	          0.12110800	          0.00600000	         -0.14697800	          0.00000000	          0.47662900	          0.00000000	          0.00000000	          0.00000000	          0.00000000	          0.68966600	          0.00000000	         -0.26819600	          0.00000000	          0.00000000	          0.00000000	
          0.00400000	        -13.95484100	        234.51668400	         23.49126100	          0.12142900	          0.00600000	         -0.14694300	          0.00000000	          0.46749400	          0.00000000	          0.00000000	          0.00000000	          0.00000000	          0.68966600	          0.00000000	         -0.26819600	          0.00000000	          0.00000000	          0.00000000	
          0.00450000	        -14.36008200	        236.16722200	         23.49902100	          0.12174900	          0.00600000	         -0.14690800	          0.00000000	          0.45825400	          0.00000000	          0.00000000	          0.00000000	          0.00000000	          0.68966600	          0.00000000	         -0.26819600	          0.00000000	          0.00000000	          0.00000000	
          0.00500000	        -14.76763600	        237.82906100	         23.50524600	          0.12207000	          0.00600000	         -0.14687300	          0.00000000	          0.44890700	          0.00000000	          0.00000000	          0.00000000	          0.00000000	          0.68966600	          0.00000000	         -0.26819600	          0.00000000	          0.00000000	          0.00000000	
          0.00550000	        -15.17748200	        239.50214400	         23.50990900	          0.12239000	          0.00600000	         -0.14683700	          0.00000000	          0.43945400	          0.00000000	          0.00000000	          0.00000000	          0.00000000	          0.68966600	          0.00000000	         -0.26819600	          0.00000000	          0.00000000	          0.00000000	
          0.00600000	        -15.58959800	        241.18641200	         23.51298100	          0.12270900	          0.00600000	         -0.14680100	          0.00000000	          0.42989500	          0.00000000	          0.00000000	          0.00000000	          0.00000000	          0.68966600	          0.00000000	         -0.26819600	          0.00000000	          0.00000000	          0.00000000	
          0.00650000	        -16.00396000	        242.88180700	         23.51443400	          0.12302800	          0.00600000	         -0.14676400	          0.00000000	          0.42023000	          0.00000000	          0.00000000	          0.00000000	          0.00000000	          0.68966600	          0.00000000	         -0.26819600	          0.00000000	          0.00000000	          0.00000000	
          0.00700000	        -16.42054700	        244.58826500	         23.51424000	          0.12334700	          0.00600000	         -0.14672600	          0.00000000	          0.41045800	          0.00000000	          0.00000000	          0.00000000	          0.00000000	          0.68966600	          0.00000000	         -0.26819600	          0.00000000	          0.00000000	          0.00000000	
          0.00750000	        -16.83933500	        246.30572300	         23.51236900	          0.12366500	          0.00600000	         -0.14668800	          0.00000000	          0.40058000	          0.00000000	          0.00000000	          0.00000000	          0.00000000	          0.68966600	          0.00000000	         -0.26819600	          0.00000000	          0.00000000	          0.00000000	
          0.00800000	        -17.26029900	        248.03411300	         23.50879500	          0.12398300	          0.00600000	         -0.14665000	          0.00000000	          0.39059400	          0.00000000	          0.00000000	          0.00000000	          0.00000000	          0.68966600	          0.00000000	         -0.26819600	          0.00000000	          0.00000000	          0.00000000	
          0.00850000	        -17.68341700	        249.77336800	         23.50348600	          0.12430100	          0.00600000	         -0.14661100	          0.00000000	          0.38050200	          0.00000000	          0.00000000	          0.00000000	          0.00000000	          0.68966600	          0.00000000	         -0.26819600	          0.00000000	          0.00000000	          0.00000000	
          0.00900000	        -18.10866200	        251.52341600	         23.49641600	          0.12461800	          0.00600000	         -0.14657200	          0.00000000	          0.37030300	          0.00000000	          0.00000000	          0.00000000	          0.00000000	          0.68966600	          0.00000000	         -0.26819600	          0.00000000	          0.00000000	          0.00000000	
          0.00950000	        -18.53601000	        253.28418600	         23.48755300	          0.12493500	          0.00600000	         -0.14653200	          0.00000000	          0.35999600	          0.00000000	          0.00000000	          0.00000000	          0.00000000	          0.68966600	          0.00000000	         -0.26819600	          0.00000000	          0.00000000	          0.00000000	
          0.01000000	        -18.96543600	        255.05560300	         23.47687000	          0.12525100	          0.00600000	         -0.14649200	          0.00000000	          0.34958200	          0.00000000	          0.00000000	          0.00000000	          0.00000000	          0.68966600	          0.00000000	         -0.26819600	          0.00000000	          0.00000000	          0.00000000	
          0.01050000	        -19.39691400	        256.83759000	         23.46433600	          0.12556700	          0.00600000	         -0.14645200	          0.00000000	          0.33906100	          0.00000000	          0.00000000	          0.00000000	          0.00000000	          0.68966600	          0.00000000	         -0.26819600	          0.00000000	          0.00000000	          0.00000000	
          0.01100000	        -19.83041800	        258.63006900	         23.44992200	          0.12588200	          0.00600000	         -0.14641000	          0.00000000	          0.32843300	          0.00000000	          0.00000000	          0.00000000	          0.00000000	          0.68966600	          0.00000000	         -0.26819600	          0.00000000	          0.00000000	          0.00000000	
          0.01150000	        -20.26592100	        260.43295800	         23.43359900	          0.12619700	          0.00600000	         -0.14636900	          0.00000000	          0.31769700	          0.00000000	          0.00000000	          0.00000000	          0.00000000	          0.68966600	          0.00000000	         -0.26819600	          0.00000000	          0.00000000	          0.00000000	
          0.01200000	        -20.70339600	        262.24617500	         23.41533600	          0.12651100	          0.00600000	         -0.14632700	          0.00000000	          0.30685300	          0.00000000	          0.00000000	          0.00000000	          0.00000000	          0.68966600	          0.00000000	         -0.26819600	          0.00000000	          0.00000000	          0.00000000	
          0.01250000	        -21.14281700	        264.06963500	         23.39510300	          0.12682500	          0.00600000	         -0.14628500	          0.00000000	          0.29590200	          0.00000000	          0.00000000	          0.00000000	          0.00000000	          0.68966600	          0.00000000	         -0.26819600	          0.00000000	          0.00000000	          0.00000000	
          0.01300000	        -21.58415700	        265.90325200	         23.37287100	          0.12713800	          0.00600000	         -0.14624200	          0.00000000	          0.28484300	          0.00000000	          0.00000000	          0.00000000	          0.00000000	          0.68966600	          0.00000000	         -0.26819600	          0.00000000	          0.00000000	          0.00000000	
          0.01350000	        -22.02738700	        267.74693600	         23.34860900	          0.12745100	          0.00600000	         -0.14619800	          0.00000000	          0.27367600	          0.00000000	          0.00000000	          0.00000000	          0.00000000	          0.68966600	          0.00000000	         -0.26819600	          0.00000000	          0.00000000	          0.00000000	
          0.01400000	        -22.47248000	        269.60059700	         23.32228700	          0.12776300	          0.00600000	         -0.14615500	          0.00000000	          0.26240100	          0.00000000	          0.00000000	          0.00000000	          0.00000000	          0.68966600	          0.00000000	         -0.26819600	          0.00000000	          0.00000000	          0.00000000	
